<svg version="1.1" id="Layer_1" xmlns="http://www.w3.org/2000/svg" xmlns:xlink="http://www.w3.org/1999/xlink" x="0px" y="0px"
	 width="100%" viewBox="0 0 500 500" enable-background="new 0 0 500 500" xml:space="preserve">
<path fill="#00000000" opacity="1.000000" stroke="none" 
	d="
M286.000000,501.000000 
	C190.666687,501.000000 95.833382,501.000000 1.000051,501.000000 
	C1.000034,334.333405 1.000034,167.666794 1.000017,1.000140 
	C167.666565,1.000094 334.333130,1.000094 500.999756,1.000047 
	C500.999847,167.666519 500.999847,334.333038 500.999939,500.999786 
	C429.500000,501.000000 358.000000,501.000000 286.000000,501.000000 
M48.971119,256.488159 
	C49.631454,264.950836 49.821228,273.481354 51.029598,281.865051 
	C58.104630,330.951538 80.296989,372.267151 117.713539,404.538483 
	C165.807526,446.019012 221.803680,462.146576 284.797272,451.952576 
	C324.115356,445.589813 358.846497,428.842560 387.640472,401.513580 
	C441.874115,350.039246 462.764648,286.747864 448.861389,213.256454 
	C432.009186,124.177238 358.073792,61.215302 272.388428,52.192879 
	C215.801392,46.234425 164.936600,61.761562 121.426102,98.153023 
	C72.727867,138.883423 49.177040,192.019272 48.971119,256.488159 
z"/>
<path fill="#020203" opacity="1.000000" stroke="none" 
	d="
M48.966141,255.990509 
	C49.177040,192.019272 72.727867,138.883423 121.426102,98.153023 
	C164.936600,61.761562 215.801392,46.234425 272.388428,52.192879 
	C358.073792,61.215302 432.009186,124.177238 448.861389,213.256454 
	C462.764648,286.747864 441.874115,350.039246 387.640472,401.513580 
	C358.846497,428.842560 324.115356,445.589813 284.797272,451.952576 
	C221.803680,462.146576 165.807526,446.019012 117.713539,404.538483 
	C80.296989,372.267151 58.104630,330.951538 51.029598,281.865051 
	C49.821228,273.481354 49.631454,264.950836 48.966141,255.990509 
M248.509399,66.001358 
	C241.211823,66.366402 233.824921,66.132690 226.632935,67.205559 
	C202.283768,70.837837 179.120132,78.173363 157.713257,90.617226 
	C124.404213,109.979851 99.162018,136.982925 82.379707,171.554916 
	C66.943825,203.353241 61.231377,237.024048 64.867836,272.316315 
	C67.053146,293.525024 72.347633,313.816010 81.565651,332.977600 
	C98.234947,367.628235 123.086082,394.811829 156.383438,414.305389 
	C195.076675,436.957886 236.770020,444.629852 280.675690,437.641205 
	C326.327637,430.374542 364.414001,408.670624 394.455963,373.161346 
	C420.690430,342.152496 434.787476,306.192413 437.804932,265.998169 
	C439.621674,241.798126 436.759033,217.923828 428.870453,194.760483 
	C411.951569,145.081116 380.139771,108.211800 333.273926,84.847572 
	C307.064178,71.781143 279.031250,65.155708 248.509399,66.001358 
z"/>
<path fill="#011E46" opacity="1.000000" stroke="none" 
	d="
M249.007263,66.001236 
	C279.031250,65.155708 307.064178,71.781143 333.273926,84.847572 
	C380.139771,108.211800 411.951569,145.081116 428.870453,194.760483 
	C436.759033,217.923828 439.621674,241.798126 437.804932,265.998169 
	C434.787476,306.192413 420.690430,342.152496 394.455963,373.161346 
	C364.414001,408.670624 326.327637,430.374542 280.675690,437.641205 
	C236.770020,444.629852 195.076675,436.957886 156.383438,414.305389 
	C123.086082,394.811829 98.234947,367.628235 81.565651,332.977600 
	C72.347633,313.816010 67.053146,293.525024 64.867836,272.316315 
	C61.231377,237.024048 66.943825,203.353241 82.379707,171.554916 
	C99.162018,136.982925 124.404213,109.979851 157.713257,90.617226 
	C179.120132,78.173363 202.283768,70.837837 226.632935,67.205559 
	C233.824921,66.132690 241.211823,66.366402 249.007263,66.001236 
M425.839447,259.807556 
	C426.229828,258.838989 426.620209,257.870392 427.010590,256.901825 
	C428.323486,258.206146 429.636383,259.510468 430.936218,260.801819 
	C433.308167,257.633087 433.303375,253.277039 431.154968,250.800018 
	C429.850616,251.907272 428.555359,253.006805 427.260071,254.106339 
	C426.809967,252.868347 426.359863,251.630356 426.008057,249.415970 
	C425.014709,239.870285 424.747589,230.181656 422.901672,220.803802 
	C415.117798,181.259521 395.759949,148.114197 365.193207,121.986351 
	C336.355469,97.336449 302.638306,83.199989 264.757935,80.223442 
	C240.886063,78.347641 217.249725,80.950600 194.545822,89.051628 
	C162.900925,100.342918 135.894211,118.359787 114.645042,144.738632 
	C88.760536,176.871811 75.882515,213.707764 75.287285,254.685471 
	C75.113106,266.676422 76.962883,278.842255 79.152824,290.693695 
	C84.812424,321.322083 98.669571,348.207214 119.167374,371.478607 
	C135.728912,390.281128 155.540268,404.995056 178.528275,415.277100 
	C200.479630,425.095459 223.488083,430.339539 247.479248,430.906281 
	C270.642090,431.453491 293.064514,427.263214 314.678345,418.928345 
	C335.864899,410.758240 354.674896,398.794952 371.270355,383.285828 
	C390.177185,365.616486 404.446777,344.739899 413.992035,320.764496 
	C421.658142,301.509003 426.431122,281.553314 425.839447,259.807556 
z"/>
<path fill="#000101" opacity="1.000000" stroke="none" 
	d="
M425.908722,260.613525 
	C426.431122,281.553314 421.658142,301.509003 413.992035,320.764496 
	C404.446777,344.739899 390.177185,365.616486 371.270355,383.285828 
	C354.674896,398.794952 335.864899,410.758240 314.678345,418.928345 
	C293.064514,427.263214 270.642090,431.453491 247.479248,430.906281 
	C223.488083,430.339539 200.479630,425.095459 178.528275,415.277100 
	C155.540268,404.995056 135.728912,390.281128 119.167374,371.478607 
	C98.669571,348.207214 84.812424,321.322083 79.152824,290.693695 
	C76.962883,278.842255 75.113106,266.676422 75.287285,254.685471 
	C75.882515,213.707764 88.760536,176.871811 114.645042,144.738632 
	C135.894211,118.359787 162.900925,100.342918 194.545822,89.051628 
	C217.249725,80.950600 240.886063,78.347641 264.757935,80.223442 
	C302.638306,83.199989 336.355469,97.336449 365.193207,121.986351 
	C395.759949,148.114197 415.117798,181.259521 422.901672,220.803802 
	C424.747589,230.181656 425.014709,239.870285 425.564697,249.818497 
	C422.839569,252.019409 422.032623,259.072021 424.013428,260.725555 
	C424.367371,261.021027 425.263123,260.667419 425.908722,260.613525 
M348.804932,237.355209 
	C323.996704,182.411530 237.777054,182.965454 214.184402,239.381943 
	C213.760788,238.283020 213.380280,237.380081 213.061188,236.455933 
	C202.992722,207.295670 192.938171,178.130600 182.862061,148.972977 
	C179.796173,140.101074 179.770111,140.109314 170.546280,140.037369 
	C168.215408,140.019180 165.851852,140.247498 163.561234,139.936340 
	C160.160019,139.474335 158.698669,140.799088 157.490021,144.016602 
	C146.098846,174.340775 134.499588,204.586761 122.964577,234.856918 
	C118.248314,247.233337 113.542358,259.613678 108.671410,272.413483 
	C110.851196,272.614624 112.455406,272.762665 114.085327,273.747345 
	C114.879120,274.875458 115.543312,276.838989 116.489349,276.985748 
	C120.392876,277.591309 124.396156,277.941315 128.332016,277.750519 
	C129.802719,277.679260 131.912903,276.181274 132.493607,274.809723 
	C135.592072,267.491669 138.504242,260.077271 141.051849,252.550980 
	C142.283905,248.911179 144.185501,247.813675 147.928589,247.919846 
	C164.665848,248.394608 181.411163,248.585480 198.645737,249.414291 
	C202.347214,262.053467 207.769318,274.045563 209.779968,287.357880 
	C213.145660,309.641724 225.924652,326.219940 245.085510,338.708801 
	C246.263718,339.570099 247.360046,340.583252 248.632629,341.269531 
	C263.221771,349.137146 278.548828,352.192627 295.229919,350.163849 
	C332.617889,345.616699 360.967834,311.668823 357.863434,274.150391 
	C357.765076,272.962006 355.855743,271.923431 354.575775,269.986755 
	C354.575653,266.453888 351.906860,267.281708 349.924133,267.248596 
	C326.520721,266.858063 303.116638,266.506989 279.712341,266.170685 
	C278.289795,266.150238 276.864197,266.342133 275.273376,266.446106 
	C275.273376,271.815704 275.273376,276.743927 275.273376,281.693542 
	C276.648163,281.869446 277.795380,282.016235 278.958008,282.985107 
	C278.775055,286.488037 281.318298,285.934418 283.419769,285.939728 
	C299.914734,285.981445 316.409790,286.002716 333.001251,286.834839 
	C328.786469,312.665192 309.782013,329.381683 283.409821,329.627441 
	C263.727478,329.810822 247.401581,322.795898 236.991333,304.332397 
	C232.735779,292.730438 230.499832,280.938568 231.861252,268.431213 
	C233.289810,255.307022 237.535706,243.521561 246.655731,233.939423 
	C261.615814,218.221329 285.943970,213.427292 306.408752,221.687592 
	C307.904480,222.291321 309.555603,222.510147 311.768799,223.126755 
	C316.524994,228.451218 321.243317,233.810394 326.065887,239.074036 
	C327.173676,240.283157 328.639709,241.164078 329.985809,242.979370 
	C330.905487,243.955475 331.796143,245.743439 332.749512,245.777512 
	C339.563904,246.021240 346.391113,245.907669 354.801208,245.907669 
	C352.389648,242.481949 350.791779,240.212097 348.804932,237.355209 
M253.266861,175.865707 
	C253.266861,177.502914 253.266861,179.140121 253.266861,180.758881 
	C251.389603,180.651932 249.147766,180.524231 246.905914,180.396515 
	C246.722626,180.830719 246.539337,181.264938 246.356049,181.699142 
	C248.615738,184.256149 250.875427,186.813171 253.135101,189.370178 
	C253.628036,189.056412 254.120987,188.742645 254.613922,188.428879 
	C253.950027,187.012177 253.286133,185.595474 252.572540,184.072739 
	C255.021255,184.072739 257.417603,184.072739 260.996094,184.072739 
	C258.079620,180.777832 256.025757,178.457458 253.266861,175.865707 
M214.094559,212.434921 
	C215.926682,214.457077 217.758804,216.479233 219.088547,217.946884 
	C221.493423,216.120697 223.228531,214.803116 224.803314,213.607269 
	C223.850769,212.483704 222.932175,211.285522 221.891922,210.204407 
	C220.777283,209.046005 218.736267,206.899994 218.498093,207.076096 
	C216.687088,208.415436 215.218796,210.218170 214.094559,212.434921 
M386.110962,253.006302 
	C385.842499,251.890503 385.574005,250.774704 385.305511,249.658905 
	C384.915588,249.720596 384.525635,249.782303 384.135712,249.844009 
	C383.723938,251.224640 383.312195,252.605270 382.881714,254.048645 
	C381.049530,252.247940 379.504425,250.729416 377.433167,248.693771 
	C377.433167,253.381302 377.433167,256.701447 377.433167,260.021576 
	C377.806366,260.036316 378.179535,260.051025 378.552734,260.065735 
	C379.007446,258.606110 379.462189,257.146484 379.922394,255.669266 
	C381.795197,257.497528 383.364349,259.029358 384.933472,260.561157 
	C385.323120,260.291840 385.712799,260.022491 386.102448,259.753174 
	C386.102448,257.782227 386.102448,255.811279 386.110962,253.006302 
M400.473114,252.877289 
	C399.805756,250.573608 398.383728,248.162491 396.260315,250.789780 
	C394.305145,253.209000 393.764618,256.771545 392.820984,259.251953 
	C396.651733,259.472687 399.537689,259.639008 402.720673,259.822418 
	C402.110504,257.846558 401.451477,255.712479 400.473114,252.877289 
M342.871796,259.340393 
	C346.470032,256.583374 347.342560,253.250992 344.936890,250.752197 
	C342.655304,248.382294 339.719543,248.032837 337.509918,250.372589 
	C336.298828,251.654968 335.359375,254.875854 336.112610,255.951233 
	C337.353455,257.722687 340.066833,258.462677 342.871796,259.340393 
M241.266541,190.592072 
	C241.940613,191.942780 242.614670,193.293488 243.288742,194.644211 
	C242.868713,194.944473 242.448685,195.244751 242.028656,195.545013 
	C239.862350,193.836624 237.696045,192.128220 235.529739,190.419830 
	C235.039597,191.010986 234.549454,191.602158 234.059296,192.193314 
	C236.548172,194.156799 238.871155,196.444443 241.639832,197.861084 
	C242.352737,198.225861 245.885178,195.430191 245.699677,194.803802 
	C244.776550,191.686630 243.044540,188.809006 241.597290,185.847046 
	C240.875015,186.201218 240.152725,186.555389 239.430450,186.909561 
	C239.889740,187.949005 240.349045,188.988449 241.266541,190.592072 
M355.464966,259.050385 
	C356.412994,258.035736 357.408478,257.060669 358.296112,255.995667 
	C359.252533,254.848175 360.918518,253.517853 360.788422,252.448029 
	C360.646973,251.284653 358.955841,249.955383 357.642883,249.392868 
	C356.436737,248.876144 354.834869,249.283081 352.909241,249.283081 
	C352.909241,252.405136 352.786560,255.181656 353.001923,257.931671 
	C353.051208,258.561005 354.265533,259.099091 355.464966,259.050385 
M415.138519,250.018707 
	C413.019226,250.018707 410.899933,250.018707 409.488312,250.018707 
	C410.601990,254.243256 411.476166,257.559265 412.350311,260.875275 
	C413.712891,259.866669 413.965851,259.129089 414.023651,258.376556 
	C414.230652,255.681488 413.149353,252.515274 416.797943,251.145218 
	C416.519867,250.802475 416.241821,250.459732 415.138519,250.018707 
M229.124512,207.331024 
	C230.807068,206.883911 232.489609,206.436813 234.172165,205.989700 
	C233.121552,203.620392 232.247925,201.145340 230.928375,198.936722 
	C230.438736,198.117203 228.903168,197.922577 227.844574,197.442978 
	C227.662140,197.820114 227.479721,198.197266 227.297287,198.574402 
	C228.818481,200.497238 230.339661,202.420090 231.781937,204.243164 
	C230.630203,205.158203 229.680542,205.912720 229.124512,207.331024 
M367.088013,252.100113 
	C367.088013,254.739471 367.088013,257.378815 367.088013,260.979126 
	C369.853271,258.303833 370.878571,251.096680 369.415192,249.995422 
	C369.128143,249.779388 367.905670,250.806381 367.088013,252.100113 
z"/>
<path fill="#30A3D8" opacity="1.000000" stroke="none" 
	d="
M425.874084,260.210541 
	C425.263123,260.667419 424.367371,261.021027 424.013428,260.725555 
	C422.032623,259.072021 422.839569,252.019409 425.515564,250.306702 
	C426.359863,251.630356 426.809967,252.868347 427.260071,254.106354 
	C428.555359,253.006805 429.850616,251.907272 431.154968,250.800018 
	C433.303375,253.277039 433.308167,257.633087 430.936218,260.801819 
	C429.636383,259.510468 428.323486,258.206146 427.010590,256.901825 
	C426.620209,257.870392 426.229828,258.838989 425.874084,260.210541 
z"/>
<path fill="#0EA3E6" opacity="1.000000" stroke="none" 
	d="
M278.942566,282.162994 
	C277.795380,282.016235 276.648163,281.869446 275.273376,281.693542 
	C275.273376,276.743927 275.273376,271.815704 275.273376,266.446106 
	C276.864197,266.342133 278.289795,266.150238 279.712341,266.170685 
	C303.116638,266.506989 326.520721,266.858063 349.924133,267.248596 
	C351.906860,267.281708 354.575653,266.453888 354.525848,270.857971 
	C354.406921,273.557587 354.302429,275.385468 354.274139,277.214539 
	C353.680603,315.599213 322.243408,346.644135 283.906128,347.065643 
	C270.103363,347.217407 257.331512,343.741852 244.988647,338.021179 
	C225.924652,326.219940 213.145660,309.641724 209.779968,287.357880 
	C207.769318,274.045563 202.347214,262.053467 198.370972,248.752838 
	C197.727264,244.798981 195.846161,243.962280 192.648941,243.939285 
	C176.834152,243.825546 161.010010,243.719788 145.213699,243.040482 
	C139.742371,242.805191 137.048187,244.440125 135.811417,249.710846 
	C134.945221,253.402313 133.211044,256.892853 131.832840,260.460876 
	C127.061172,272.814148 127.055908,272.812103 114.059608,272.910706 
	C112.455406,272.762665 110.851196,272.614624 108.671410,272.413483 
	C113.542358,259.613678 118.248314,247.233337 122.964577,234.856918 
	C134.499588,204.586761 146.098846,174.340775 157.490021,144.016602 
	C158.698669,140.799088 160.160019,139.474335 163.561234,139.936340 
	C165.851852,140.247498 168.215408,140.019180 170.546280,140.037369 
	C179.770111,140.109314 179.796173,140.101074 182.862061,148.972977 
	C192.938171,178.130600 202.992722,207.295670 213.061188,236.455933 
	C213.380280,237.380081 213.760788,238.283020 214.184402,239.381943 
	C237.777054,182.965454 323.996704,182.411530 348.968628,238.045959 
	C349.330933,239.760132 349.529541,240.783524 349.803680,242.196030 
	C342.862579,242.196030 336.401703,242.196030 329.940857,242.196030 
	C328.639709,241.164078 327.173676,240.283157 326.065887,239.074036 
	C321.243317,233.810394 316.524994,228.451218 311.300598,222.704559 
	C297.966705,213.919296 283.898682,212.264923 269.259369,215.546646 
	C243.479843,221.325668 227.093094,244.269562 227.962128,272.663910 
	C228.315994,284.225952 229.797867,295.440338 236.921478,305.116241 
	C247.401581,322.795898 263.727478,329.810822 283.409821,329.627441 
	C309.782013,329.381683 328.786469,312.665192 333.119019,286.102264 
	C332.513000,284.522369 331.804138,282.949463 331.063141,282.934143 
	C313.691711,282.575195 296.316833,282.384583 278.942566,282.162994 
M171.802719,170.404755 
	C170.894211,168.000793 169.985703,165.596832 168.669403,162.113831 
	C160.105560,184.996902 151.979736,206.709564 143.674561,228.901459 
	C146.442078,228.901459 148.248489,228.901459 150.974884,229.050461 
	C164.449066,229.050461 177.923248,229.050461 191.879349,229.050461 
	C185.274048,209.970230 178.552902,190.555344 171.802719,170.404755 
z"/>
<path fill="#03293A" opacity="1.000000" stroke="none" 
	d="
M245.037079,338.364990 
	C257.331512,343.741852 270.103363,347.217407 283.906128,347.065643 
	C322.243408,346.644135 353.680603,315.599213 354.274139,277.214539 
	C354.302429,275.385468 354.406921,273.557587 354.633301,271.272095 
	C355.855743,271.923431 357.765076,272.962006 357.863434,274.150391 
	C360.967834,311.668823 332.617889,345.616699 295.229919,350.163849 
	C278.548828,352.192627 263.221771,349.137146 248.632629,341.269531 
	C247.360046,340.583252 246.263718,339.570099 245.037079,338.364990 
z"/>
<path fill="#032A3A" opacity="1.000000" stroke="none" 
	d="
M236.956406,304.724304 
	C229.797867,295.440338 228.315994,284.225952 227.962128,272.663910 
	C227.093094,244.269562 243.479843,221.325668 269.259369,215.546646 
	C283.898682,212.264923 297.966705,213.919296 310.983429,222.595154 
	C309.555603,222.510147 307.904480,222.291321 306.408752,221.687592 
	C285.943970,213.427292 261.615814,218.221329 246.655731,233.939423 
	C237.535706,243.521561 233.289810,255.307022 231.861252,268.431213 
	C230.499832,280.938568 232.735779,292.730438 236.956406,304.724304 
z"/>
<path fill="#053A52" opacity="1.000000" stroke="none" 
	d="
M114.072464,273.329041 
	C127.055908,272.812103 127.061172,272.814148 131.832840,260.460876 
	C133.211044,256.892853 134.945221,253.402313 135.811417,249.710846 
	C137.048187,244.440125 139.742371,242.805191 145.213699,243.040482 
	C161.010010,243.719788 176.834152,243.825546 192.648941,243.939285 
	C195.846161,243.962280 197.727264,244.798981 198.124878,248.485123 
	C181.411163,248.585480 164.665848,248.394608 147.928589,247.919846 
	C144.185501,247.813675 142.283905,248.911179 141.051849,252.550980 
	C138.504242,260.077271 135.592072,267.491669 132.493607,274.809723 
	C131.912903,276.181274 129.802719,277.679260 128.332016,277.750519 
	C124.396156,277.941315 120.392876,277.591309 116.489349,276.985748 
	C115.543312,276.838989 114.879120,274.875458 114.072464,273.329041 
z"/>
<path fill="#032A3B" opacity="1.000000" stroke="none" 
	d="
M278.950287,282.574036 
	C296.316833,282.384583 313.691711,282.575195 331.063141,282.934143 
	C331.804138,282.949463 332.513000,284.522369 333.070801,285.699982 
	C316.409790,286.002716 299.914734,285.981445 283.419769,285.939728 
	C281.318298,285.934418 278.775055,286.488037 278.950287,282.574036 
z"/>
<path fill="#032635" opacity="1.000000" stroke="none" 
	d="
M329.963318,242.587708 
	C336.401703,242.196030 342.862579,242.196030 349.803680,242.196030 
	C349.529541,240.783524 349.330933,239.760132 349.163116,238.339493 
	C350.791779,240.212097 352.389648,242.481949 354.801208,245.907669 
	C346.391113,245.907669 339.563904,246.021240 332.749512,245.777512 
	C331.796143,245.743439 330.905487,243.955475 329.963318,242.587708 
z"/>
<path fill="#33ACE1" opacity="1.000000" stroke="none" 
	d="
M253.619354,176.001404 
	C256.025757,178.457458 258.079620,180.777832 260.996094,184.072739 
	C257.417603,184.072739 255.021255,184.072739 252.572540,184.072739 
	C253.286133,185.595474 253.950027,187.012177 254.613922,188.428879 
	C254.120987,188.742645 253.628036,189.056412 253.135101,189.370178 
	C250.875427,186.813171 248.615738,184.256149 246.356049,181.699142 
	C246.539337,181.264938 246.722626,180.830719 246.905914,180.396515 
	C249.147766,180.524231 251.389603,180.651932 253.266861,180.758881 
	C253.266861,179.140121 253.266861,177.502914 253.619354,176.001404 
z"/>
<path fill="#33ABE0" opacity="1.000000" stroke="none" 
	d="
M213.869141,212.155716 
	C215.218796,210.218170 216.687088,208.415436 218.498093,207.076096 
	C218.736267,206.899994 220.777283,209.046005 221.891922,210.204407 
	C222.932175,211.285522 223.850769,212.483704 224.803314,213.607269 
	C223.228531,214.803116 221.493423,216.120697 219.088547,217.946884 
	C217.758804,216.479233 215.926682,214.457077 213.869141,212.155716 
z"/>
<path fill="#36B5ED" opacity="1.000000" stroke="none" 
	d="
M386.106689,253.423309 
	C386.102448,255.811279 386.102448,257.782227 386.102448,259.753174 
	C385.712799,260.022491 385.323120,260.291840 384.933472,260.561157 
	C383.364349,259.029358 381.795197,257.497528 379.922394,255.669266 
	C379.462189,257.146484 379.007446,258.606110 378.552734,260.065735 
	C378.179535,260.051025 377.806366,260.036316 377.433167,260.021576 
	C377.433167,256.701447 377.433167,253.381302 377.433167,248.693771 
	C379.504425,250.729416 381.049530,252.247940 382.881714,254.048645 
	C383.312195,252.605270 383.723938,251.224640 384.135712,249.844009 
	C384.525635,249.782303 384.915588,249.720596 385.305511,249.658905 
	C385.574005,250.774704 385.842499,251.890503 386.106689,253.423309 
z"/>
<path fill="#33ABE0" opacity="1.000000" stroke="none" 
	d="
M400.632782,253.227844 
	C401.451477,255.712479 402.110504,257.846558 402.720673,259.822418 
	C399.537689,259.639008 396.651733,259.472687 392.820984,259.251953 
	C393.764618,256.771545 394.305145,253.209000 396.260315,250.789780 
	C398.383728,248.162491 399.805756,250.573608 400.632782,253.227844 
z"/>
<path fill="#32AADF" opacity="1.000000" stroke="none" 
	d="
M342.515625,259.488922 
	C340.066833,258.462677 337.353455,257.722687 336.112610,255.951233 
	C335.359375,254.875854 336.298828,251.654968 337.509918,250.372589 
	C339.719543,248.032837 342.655304,248.382294 344.936890,250.752197 
	C347.342560,253.250992 346.470032,256.583374 342.515625,259.488922 
M339.293243,252.020767 
	C337.605072,254.144882 337.637360,256.084961 340.411896,256.957031 
	C341.172516,257.196136 343.108307,256.059753 343.319489,255.246719 
	C343.991486,252.659454 342.926727,251.080353 339.293243,252.020767 
z"/>
<path fill="#31A5D9" opacity="1.000000" stroke="none" 
	d="
M241.037445,190.309982 
	C240.349045,188.988449 239.889740,187.949005 239.430450,186.909561 
	C240.152725,186.555389 240.875015,186.201218 241.597290,185.847046 
	C243.044540,188.809006 244.776550,191.686630 245.699677,194.803802 
	C245.885178,195.430191 242.352737,198.225861 241.639832,197.861084 
	C238.871155,196.444443 236.548172,194.156799 234.059296,192.193314 
	C234.549454,191.602158 235.039597,191.010986 235.529739,190.419830 
	C237.696045,192.128220 239.862350,193.836624 242.028656,195.545013 
	C242.448685,195.244751 242.868713,194.944473 243.288742,194.644211 
	C242.614670,193.293488 241.940613,191.942780 241.037445,190.309982 
z"/>
<path fill="#30A2D5" opacity="1.000000" stroke="none" 
	d="
M355.204315,259.364777 
	C354.265533,259.099091 353.051208,258.561005 353.001923,257.931671 
	C352.786560,255.181656 352.909241,252.405136 352.909241,249.283081 
	C354.834869,249.283081 356.436737,248.876144 357.642883,249.392868 
	C358.955841,249.955383 360.646973,251.284653 360.788422,252.448029 
	C360.918518,253.517853 359.252533,254.848175 358.296112,255.995667 
	C357.408478,257.060669 356.412994,258.035736 355.204315,259.364777 
z"/>
<path fill="#31A5D9" opacity="1.000000" stroke="none" 
	d="
M415.551147,250.067841 
	C416.241821,250.459732 416.519867,250.802475 416.797943,251.145218 
	C413.149353,252.515274 414.230652,255.681488 414.023651,258.376556 
	C413.965851,259.129089 413.712891,259.866669 412.350311,260.875275 
	C411.476166,257.559265 410.601990,254.243256 409.488312,250.018707 
	C410.899933,250.018707 413.019226,250.018707 415.551147,250.067841 
z"/>
<path fill="#30A2D4" opacity="1.000000" stroke="none" 
	d="
M228.927704,206.999115 
	C229.680542,205.912720 230.630203,205.158203 231.781937,204.243164 
	C230.339661,202.420090 228.818481,200.497238 227.297287,198.574402 
	C227.479721,198.197266 227.662140,197.820114 227.844574,197.442978 
	C228.903168,197.922577 230.438736,198.117203 230.928375,198.936722 
	C232.247925,201.145340 233.121552,203.620392 234.172165,205.989700 
	C232.489609,206.436813 230.807068,206.883911 228.927704,206.999115 
z"/>
<path fill="#30A3D6" opacity="1.000000" stroke="none" 
	d="
M367.101318,251.680084 
	C367.905670,250.806381 369.128143,249.779388 369.415192,249.995422 
	C370.878571,251.096680 369.853271,258.303833 367.088013,260.979126 
	C367.088013,257.378815 367.088013,254.739471 367.101318,251.680084 
z"/>
<path fill="#000203" opacity="1.000000" stroke="none" 
	d="
M171.831741,171.140457 
	C178.552902,190.555344 185.274048,209.970230 191.879349,229.050461 
	C177.923248,229.050461 164.449066,229.050461 150.545715,228.614990 
	C151.010391,225.862259 151.913864,223.548660 152.796524,221.227127 
	C159.143967,204.532471 165.487183,187.836212 171.831741,171.140457 
z"/>
<path fill="#053B52" opacity="1.000000" stroke="none" 
	d="
M171.817230,170.772614 
	C165.487183,187.836212 159.143967,204.532471 152.796524,221.227127 
	C151.913864,223.548660 151.010391,225.862259 150.085724,228.540497 
	C148.248489,228.901459 146.442078,228.901459 143.674561,228.901459 
	C151.979736,206.709564 160.105560,184.996902 168.669403,162.113831 
	C169.985703,165.596832 170.894211,168.000793 171.817230,170.772614 
z"/>
<path fill="#06141B" opacity="1.000000" stroke="none" 
	d="
M339.604736,251.846954 
	C342.926727,251.080353 343.991486,252.659454 343.319489,255.246719 
	C343.108307,256.059753 341.172516,257.196136 340.411896,256.957031 
	C337.637360,256.084961 337.605072,254.144882 339.604736,251.846954 
z"/>
</svg>